<svg width="192" height="16" fill="none" xmlns="http://www.w3.org/2000/svg"><path d="M97 12v2h1v1h4v-1h1v-1h1v1h1v1h4v-1h1v-2h-2v-1h-1v-1h-2V9h-1V8h-1v1h-1v1h-2v1h-1v1h-2ZM115 13v1h1v1h3v-1h1v1h3v-1h1v-1h-1v-1h-1v-2h-1V9h-1V8h-1v1h-1v1h-1v2h-1v1h-1ZM133 13v1h1v1h1v-1h1v1h1v-1h1v-1h-1v-3h-1V8h-1v2h-1v3h-1ZM152 8h-1v6h1V8ZM3 3H1v5h1v2h1v1h2v1h5v-1h2v-1h1V8h1V3h-2v1h-1v1h-1v1H9v1H8v1H7V7H6V6H5V5H4V4H3V3ZM17 5h-1v3h1v2h1v1h2v1h3v-1h1v1h3v-1h2v-1h1V8h1V5h-1V4h-1v1h-2v1h-1v1h-2v1h-1V7h-2V6h-1V5h-2V4h-1v1ZM32 6v3h1v1h1v1h2v1h3v-1h1v1h3v-1h2v-1h1V9h1V6h-3v1h-3v1h-3V7h-3V6h-3ZM52 7h-4v3h1v1h2v1h4v-1h1v1h4v-1h2v-1h1V7h-4v1h-7V7ZM68 9h-4v2h1v1h2v1h4v-1h1v1h4v-1h2v-1h1V9h-4V8h-7v1ZM81 11h-1v1h1v1h2v1h3v-1h1v-1h1v1h1v1h3v-1h2v-1h1v-1h-1v-1h-3V9h-2V8h-3v1h-2v1h-3v1ZM173 11h-2v1h2v-1ZM164 10h-2v1h2v-1ZM163 8V7h1v1h1v1h-1V8h-1ZM168 15v-1h1v1h1v1h-1v-1h-1ZM168 8V7h1V6h1v1h-1v1h-1ZM163 14v-1h1v-1h1v1h-1v1h-1ZM165 16v-1h1v-1h1v1h-1v1h-1ZM170 10V9h1V8h1v1h-1v1h-1ZM165 7V6h1v1h1v1h-1V7h-1ZM170 14v-1h1v1h1v1h-1v-1h-1Z" fill="#231F20"/></svg>